<svg id="visual" viewBox="0 0 900 450" width="900" height="450" xmlns="http://www.w3.org/2000/svg" xmlns:xlink="http://www.w3.org/1999/xlink" version="1.1"><rect x="0" y="0" width="900" height="450" fill="#efd5ae"></rect><path d="M0 220L21.5 209.2C43 198.3 86 176.7 128.8 171.5C171.7 166.3 214.3 177.7 257.2 190.3C300 203 343 217 385.8 229.2C428.7 241.3 471.3 251.7 514.2 245.7C557 239.7 600 217.3 642.8 212.5C685.7 207.7 728.3 220.3 771.2 229.3C814 238.3 857 243.7 878.5 246.3L900 249L900 451L878.5 451C857 451 814 451 771.2 451C728.3 451 685.7 451 642.8 451C600 451 557 451 514.2 451C471.3 451 428.7 451 385.8 451C343 451 300 451 257.2 451C214.3 451 171.7 451 128.8 451C86 451 43 451 21.5 451L0 451Z" fill="#fa7268"></path><path d="M0 261L21.5 254.7C43 248.3 86 235.7 128.8 226.8C171.7 218 214.3 213 257.2 221C300 229 343 250 385.8 259.2C428.7 268.3 471.3 265.7 514.2 256.7C557 247.7 600 232.3 642.8 236.8C685.7 241.3 728.3 265.7 771.2 274.5C814 283.3 857 276.7 878.5 273.3L900 270L900 451L878.5 451C857 451 814 451 771.2 451C728.3 451 685.7 451 642.8 451C600 451 557 451 514.2 451C471.3 451 428.7 451 385.8 451C343 451 300 451 257.2 451C214.3 451 171.7 451 128.8 451C86 451 43 451 21.5 451L0 451Z" fill="#ef5f67"></path><path d="M0 314L21.5 315C43 316 86 318 128.8 321.2C171.7 324.3 214.3 328.7 257.2 321.3C300 314 343 295 385.8 290.2C428.7 285.3 471.3 294.7 514.2 293.5C557 292.3 600 280.7 642.8 283.5C685.7 286.3 728.3 303.7 771.2 303C814 302.3 857 283.7 878.5 274.3L900 265L900 451L878.5 451C857 451 814 451 771.2 451C728.3 451 685.7 451 642.8 451C600 451 557 451 514.2 451C471.3 451 428.7 451 385.8 451C343 451 300 451 257.2 451C214.3 451 171.7 451 128.8 451C86 451 43 451 21.5 451L0 451Z" fill="#e34c67"></path><path d="M0 326L21.5 333.7C43 341.3 86 356.7 128.8 354.8C171.7 353 214.3 334 257.2 326.7C300 319.3 343 323.7 385.8 331.3C428.7 339 471.3 350 514.2 347.5C557 345 600 329 642.8 328C685.7 327 728.3 341 771.2 349.3C814 357.7 857 360.3 878.5 361.7L900 363L900 451L878.5 451C857 451 814 451 771.2 451C728.3 451 685.7 451 642.8 451C600 451 557 451 514.2 451C471.3 451 428.7 451 385.8 451C343 451 300 451 257.2 451C214.3 451 171.7 451 128.8 451C86 451 43 451 21.5 451L0 451Z" fill="#d53867"></path><path d="M0 376L21.5 376C43 376 86 376 128.8 373.5C171.7 371 214.3 366 257.2 363.5C300 361 343 361 385.8 367C428.7 373 471.3 385 514.2 388.7C557 392.3 600 387.7 642.8 384.2C685.7 380.7 728.3 378.3 771.2 376.8C814 375.3 857 374.7 878.5 374.3L900 374L900 451L878.5 451C857 451 814 451 771.2 451C728.3 451 685.7 451 642.8 451C600 451 557 451 514.2 451C471.3 451 428.7 451 385.8 451C343 451 300 451 257.2 451C214.3 451 171.7 451 128.8 451C86 451 43 451 21.5 451L0 451Z" fill="#c62368"></path></svg>